<svg width="60" height="38" viewBox="0 0 60 38" fill="none" xmlns="http://www.w3.org/2000/svg">
<g id="Group 1171275192">
<g id="Vector">
<mask id="path-1-inside-1_9157_1626" fill="white">
<path d="M46.5478 21.2654C46.5428 21.2554 46.5428 21.243 46.5478 21.233L41.8138 9.6687H42.115C42.4714 9.6687 42.8102 9.52922 43.0613 9.28015C43.3123 9.03109 43.4554 8.69235 43.4554 8.34115V5.58399C43.4554 5.23281 43.3123 4.8941 43.0613 4.64499C42.8103 4.39592 42.4714 4.25644 42.115 4.25644H37.4311C35.9827 4.25644 34.8105 5.41708 34.8055 6.85419V7.06589C34.8105 7.47436 34.9109 7.87783 35.1017 8.24152C34.7453 8.02483 34.4365 7.74588 34.183 7.41709C33.3145 6.25894 31.944 5.5765 30.4881 5.57153H30.1593H30.1618C29.7903 5.57153 29.4916 5.86791 29.4916 6.23656C29.4916 6.60268 29.7903 6.8991 30.1618 6.8991H30.4906H30.4881C31.5248 6.90906 32.4962 7.40221 33.1137 8.22908C33.8994 9.27515 35.1017 9.93769 36.412 10.0473L37.7097 24.6052L37.7122 24.6077C37.431 24.9115 37.17 25.2303 36.929 25.5641L29.3985 25.5292C28.4396 22.9838 28.2087 20.2266 28.7283 17.5591H30.1741C30.3523 17.5591 30.523 17.4894 30.6485 17.3648C30.774 17.2403 30.8443 17.0709 30.8443 16.8966V15.0087C30.8393 13.4844 29.5943 12.2491 28.0581 12.2466H20.0257V3.32003C20.0257 2.43835 19.6743 1.59402 19.0468 0.971334C18.4193 0.34867 17.5684 0 16.6798 0H5.45442C3.60698 0 2.10846 1.48691 2.10846 3.32003V14.2467C2.10344 14.9641 2.33939 15.6665 2.77617 16.2393H0.667713C0.298726 16.2393 0 16.5357 0 16.9018C0 17.2704 0.298701 17.5668 0.667713 17.5668H2.70845L9.03396 24.8719H9.03647C8.06507 26.3215 7.53294 28.0152 7.49528 29.7536V30.4709C7.49026 30.6502 7.55803 30.8221 7.68354 30.9491C7.81156 31.0786 7.98475 31.1509 8.16548 31.1484H9.92007C10.2564 34.7599 13.3087 37.522 16.9635 37.522C20.6183 37.522 23.6727 34.7599 24.0095 31.1484H26.0175L28.1461 33.2131V33.2156C28.2716 33.3352 28.4398 33.4024 28.6155 33.3999H37.7923C37.9705 33.3975 38.1437 33.3252 38.2667 33.1957C39.1503 35.1583 40.812 36.6702 42.8577 37.375C44.9034 38.0824 47.155 37.918 49.0727 36.9217C50.993 35.9255 52.4137 34.187 52.9961 32.1147C53.5809 30.045 53.2772 27.8283 52.1552 25.9877H52.7526C53.0111 25.9902 53.2496 25.8432 53.36 25.6091C53.473 25.375 53.4353 25.0985 53.2672 24.8993C51.5779 22.8793 49.1734 21.5792 46.5478 21.2654ZM45.0895 21.2131H45.087C42.858 21.2629 40.7043 22.035 38.9573 23.4123L37.7323 9.66867H40.3705L45.0895 21.2131ZM37.4311 8.34104C36.7207 8.34104 36.1459 7.77068 36.1459 7.06582V6.85411C36.1484 6.15172 36.7233 5.58387 37.4311 5.58387H42.115V8.34102L37.4311 8.34104ZM20.026 14.2464V13.5814H28.0583C28.859 13.5814 29.5092 14.2215 29.5117 15.016V16.2389H19.3581C19.7924 15.6636 20.026 14.9637 20.026 14.2464ZM8.40668 1.32714H13.7206V3.85016C13.7206 4.027 13.6503 4.19636 13.5248 4.3209C13.3993 4.44543 13.2286 4.51517 13.0529 4.51517H9.07686C8.70536 4.51517 8.40664 4.21878 8.40664 3.85014L8.40668 1.32714ZM3.44667 3.31967C3.44667 2.21877 4.34527 1.32714 5.45476 1.32714H7.06875V3.85016C7.06875 4.95106 7.96734 5.84269 9.07684 5.84269H13.0529C14.1598 5.84269 15.0609 4.95106 15.0609 3.85016V1.32714H16.6799C17.7894 1.32714 18.688 2.21877 18.688 3.31967V9.46412H3.44648L3.44667 3.31967ZM3.44667 14.2464V10.7918H18.6882V14.2464C18.6882 15.3448 17.7896 16.2389 16.6801 16.2389H5.45476C4.34527 16.2389 3.44667 15.3448 3.44667 14.2464ZM4.47083 17.5664H11.833C10.9846 19.2825 10.5628 21.1754 10.6081 23.0857C10.3545 23.3173 10.1136 23.5564 9.88515 23.8105L4.47083 17.5664ZM16.9615 36.1967C14.0523 36.1893 11.6074 34.0274 11.266 31.1631H13.4423H13.4397C13.7636 32.8418 15.242 34.0548 16.964 34.0548C18.6859 34.0548 20.1669 32.8419 20.4882 31.1631H22.6569C22.318 34.0299 19.8707 36.1918 16.9615 36.1967ZM14.8254 31.1631H19.1026C18.8164 32.0971 17.9479 32.7347 16.964 32.7347C15.98 32.7347 15.114 32.0971 14.8254 31.1631ZM8.83375 29.8356V29.7958L8.83626 29.7933C8.93415 25.462 12.501 22.0023 16.8686 22.0023H17.0418C21.4245 22.0023 24.9964 25.4867 25.0742 29.8328L8.83375 29.8356ZM35.0668 32.0871L28.8618 32.0847L26.3592 29.6662V29.6687C26.2789 27.2552 25.2573 24.9688 23.5078 23.29C21.7582 21.6113 19.4213 20.6723 16.9887 20.6748H16.813C15.1062 20.6923 13.4394 21.1804 11.9936 22.082C12.0463 20.4805 12.5458 18.9239 13.4394 17.5864H27.3906C26.9966 19.7308 26.4544 25.5093 30.7366 29.9872C30.8621 30.1168 31.0353 30.1915 31.2185 30.1915H35.1669C35.1167 30.6024 35.0916 31.0159 35.0866 31.4268C35.0464 31.6859 35.054 31.8851 35.0665 32.0844L35.0668 32.0871ZM35.383 28.8842C35.3529 28.8792 35.3253 28.8792 35.2952 28.8842H31.4723C30.9226 28.274 30.4406 27.6065 30.034 26.8916H36.1386C35.8148 27.5268 35.5613 28.1943 35.383 28.8842ZM37.4313 32.0847H36.4071V31.4196V31.4221C36.4197 27.9477 38.4654 24.7993 41.6482 23.3551C44.831 21.9109 48.5689 22.4335 51.2266 24.6926C46.854 24.9591 41.3999 26.5652 37.4313 32.0847ZM46.006 29.4271L45.1701 28.1643H45.2831V28.1668C46.0336 28.1568 46.6912 28.6624 46.8745 29.3848C47.0552 30.1071 46.7138 30.8592 46.0461 31.2005C45.3809 31.5442 44.5652 31.3873 44.0757 30.8219C43.5837 30.259 43.5511 29.4346 43.9904 28.8319L44.8864 30.1594C45.1023 30.4682 45.529 30.5479 45.8403 30.3362C46.1541 30.122 46.2319 29.6986 46.0185 29.3897L46.006 29.4271ZM45.2956 36.1966C42.5771 36.2016 40.1424 34.5229 39.1985 31.9923C40.1348 30.8342 41.2317 29.813 42.4566 28.9562C42.3839 29.2103 42.3462 29.4718 42.3437 29.7333C42.3412 30.8267 42.9511 31.828 43.9275 32.3361C44.9015 32.8417 46.0787 32.7694 46.9823 32.1443C47.886 31.5191 48.3629 30.4481 48.2223 29.3672C48.0818 28.2838 47.3463 27.3672 46.3121 26.9911C47.7178 26.5104 49.1761 26.2015 50.6571 26.067C52.0301 28.0422 52.1858 30.61 51.0638 32.7345C49.9392 34.859 47.7203 36.1891 45.3031 36.1891L45.2956 36.1966Z"/>
</mask>
<path d="M46.5478 21.2654C46.5428 21.2554 46.5428 21.243 46.5478 21.233L41.8138 9.6687H42.115C42.4714 9.6687 42.8102 9.52922 43.0613 9.28015C43.3123 9.03109 43.4554 8.69235 43.4554 8.34115V5.58399C43.4554 5.23281 43.3123 4.8941 43.0613 4.64499C42.8103 4.39592 42.4714 4.25644 42.115 4.25644H37.4311C35.9827 4.25644 34.8105 5.41708 34.8055 6.85419V7.06589C34.8105 7.47436 34.9109 7.87783 35.1017 8.24152C34.7453 8.02483 34.4365 7.74588 34.183 7.41709C33.3145 6.25894 31.944 5.5765 30.4881 5.57153H30.1593H30.1618C29.7903 5.57153 29.4916 5.86791 29.4916 6.23656C29.4916 6.60268 29.7903 6.8991 30.1618 6.8991H30.4906H30.4881C31.5248 6.90906 32.4962 7.40221 33.1137 8.22908C33.8994 9.27515 35.1017 9.93769 36.412 10.0473L37.7097 24.6052L37.7122 24.6077C37.431 24.9115 37.17 25.2303 36.929 25.5641L29.3985 25.5292C28.4396 22.9838 28.2087 20.2266 28.7283 17.5591H30.1741C30.3523 17.5591 30.523 17.4894 30.6485 17.3648C30.774 17.2403 30.8443 17.0709 30.8443 16.8966V15.0087C30.8393 13.4844 29.5943 12.2491 28.0581 12.2466H20.0257V3.32003C20.0257 2.43835 19.6743 1.59402 19.0468 0.971334C18.4193 0.34867 17.5684 0 16.6798 0H5.45442C3.60698 0 2.10846 1.48691 2.10846 3.32003V14.2467C2.10344 14.9641 2.33939 15.6665 2.77617 16.2393H0.667713C0.298726 16.2393 0 16.5357 0 16.9018C0 17.2704 0.298701 17.5668 0.667713 17.5668H2.70845L9.03396 24.8719H9.03647C8.06507 26.3215 7.53294 28.0152 7.49528 29.7536V30.4709C7.49026 30.6502 7.55803 30.8221 7.68354 30.9491C7.81156 31.0786 7.98475 31.1509 8.16548 31.1484H9.92007C10.2564 34.7599 13.3087 37.522 16.9635 37.522C20.6183 37.522 23.6727 34.7599 24.0095 31.1484H26.0175L28.1461 33.2131V33.2156C28.2716 33.3352 28.4398 33.4024 28.6155 33.3999H37.7923C37.9705 33.3975 38.1437 33.3252 38.2667 33.1957C39.1503 35.1583 40.812 36.6702 42.8577 37.375C44.9034 38.0824 47.155 37.918 49.0727 36.9217C50.993 35.9255 52.4137 34.187 52.9961 32.1147C53.5809 30.045 53.2772 27.8283 52.1552 25.9877H52.7526C53.0111 25.9902 53.2496 25.8432 53.36 25.6091C53.473 25.375 53.4353 25.0985 53.2672 24.8993C51.5779 22.8793 49.1734 21.5792 46.5478 21.2654ZM45.0895 21.2131H45.087C42.858 21.2629 40.7043 22.035 38.9573 23.4123L37.7323 9.66867H40.3705L45.0895 21.2131ZM37.4311 8.34104C36.7207 8.34104 36.1459 7.77068 36.1459 7.06582V6.85411C36.1484 6.15172 36.7233 5.58387 37.4311 5.58387H42.115V8.34102L37.4311 8.34104ZM20.026 14.2464V13.5814H28.0583C28.859 13.5814 29.5092 14.2215 29.5117 15.016V16.2389H19.3581C19.7924 15.6636 20.026 14.9637 20.026 14.2464ZM8.40668 1.32714H13.7206V3.85016C13.7206 4.027 13.6503 4.19636 13.5248 4.3209C13.3993 4.44543 13.2286 4.51517 13.0529 4.51517H9.07686C8.70536 4.51517 8.40664 4.21878 8.40664 3.85014L8.40668 1.32714ZM3.44667 3.31967C3.44667 2.21877 4.34527 1.32714 5.45476 1.32714H7.06875V3.85016C7.06875 4.95106 7.96734 5.84269 9.07684 5.84269H13.0529C14.1598 5.84269 15.0609 4.95106 15.0609 3.85016V1.32714H16.6799C17.7894 1.32714 18.688 2.21877 18.688 3.31967V9.46412H3.44648L3.44667 3.31967ZM3.44667 14.2464V10.7918H18.6882V14.2464C18.6882 15.3448 17.7896 16.2389 16.6801 16.2389H5.45476C4.34527 16.2389 3.44667 15.3448 3.44667 14.2464ZM4.47083 17.5664H11.833C10.9846 19.2825 10.5628 21.1754 10.6081 23.0857C10.3545 23.3173 10.1136 23.5564 9.88515 23.8105L4.47083 17.5664ZM16.9615 36.1967C14.0523 36.1893 11.6074 34.0274 11.266 31.1631H13.4423H13.4397C13.7636 32.8418 15.242 34.0548 16.964 34.0548C18.6859 34.0548 20.1669 32.8419 20.4882 31.1631H22.6569C22.318 34.0299 19.8707 36.1918 16.9615 36.1967ZM14.8254 31.1631H19.1026C18.8164 32.0971 17.9479 32.7347 16.964 32.7347C15.98 32.7347 15.114 32.0971 14.8254 31.1631ZM8.83375 29.8356V29.7958L8.83626 29.7933C8.93415 25.462 12.501 22.0023 16.8686 22.0023H17.0418C21.4245 22.0023 24.9964 25.4867 25.0742 29.8328L8.83375 29.8356ZM35.0668 32.0871L28.8618 32.0847L26.3592 29.6662V29.6687C26.2789 27.2552 25.2573 24.9688 23.5078 23.29C21.7582 21.6113 19.4213 20.6723 16.9887 20.6748H16.813C15.1062 20.6923 13.4394 21.1804 11.9936 22.082C12.0463 20.4805 12.5458 18.9239 13.4394 17.5864H27.3906C26.9966 19.7308 26.4544 25.5093 30.7366 29.9872C30.8621 30.1168 31.0353 30.1915 31.2185 30.1915H35.1669C35.1167 30.6024 35.0916 31.0159 35.0866 31.4268C35.0464 31.6859 35.054 31.8851 35.0665 32.0844L35.0668 32.0871ZM35.383 28.8842C35.3529 28.8792 35.3253 28.8792 35.2952 28.8842H31.4723C30.9226 28.274 30.4406 27.6065 30.034 26.8916H36.1386C35.8148 27.5268 35.5613 28.1943 35.383 28.8842ZM37.4313 32.0847H36.4071V31.4196V31.4221C36.4197 27.9477 38.4654 24.7993 41.6482 23.3551C44.831 21.9109 48.5689 22.4335 51.2266 24.6926C46.854 24.9591 41.3999 26.5652 37.4313 32.0847ZM46.006 29.4271L45.1701 28.1643H45.2831V28.1668C46.0336 28.1568 46.6912 28.6624 46.8745 29.3848C47.0552 30.1071 46.7138 30.8592 46.0461 31.2005C45.3809 31.5442 44.5652 31.3873 44.0757 30.8219C43.5837 30.259 43.5511 29.4346 43.9904 28.8319L44.8864 30.1594C45.1023 30.4682 45.529 30.5479 45.8403 30.3362C46.1541 30.122 46.2319 29.6986 46.0185 29.3897L46.006 29.4271ZM45.2956 36.1966C42.5771 36.2016 40.1424 34.5229 39.1985 31.9923C40.1348 30.8342 41.2317 29.813 42.4566 28.9562C42.3839 29.2103 42.3462 29.4718 42.3437 29.7333C42.3412 30.8267 42.9511 31.828 43.9275 32.3361C44.9015 32.8417 46.0787 32.7694 46.9823 32.1443C47.886 31.5191 48.3629 30.4481 48.2223 29.3672C48.0818 28.2838 47.3463 27.3672 46.3121 26.9911C47.7178 26.5104 49.1761 26.2015 50.6571 26.067C52.0301 28.0422 52.1858 30.61 51.0638 32.7345C49.9392 34.859 47.7203 36.1891 45.3031 36.1891L45.2956 36.1966Z" fill="#3D3D3D"/>
<path d="M35.7327 29.2416L35.7352 29.2391L35.0308 28.5293L35.0283 28.5318L35.7327 29.2416ZM46.5478 21.2654L45.6548 21.7154L45.8963 22.1946L46.4291 22.2583L46.5478 21.2654ZM46.5478 21.233L47.4408 21.683L47.646 21.276L47.4733 20.8542L46.5478 21.233ZM41.8138 9.6687V8.6687H40.3238L40.8883 10.0476L41.8138 9.6687ZM43.0613 9.28015L43.7656 9.99007L43.7657 9.99L43.0613 9.28015ZM43.0613 4.64499L43.7657 3.93521L43.7656 3.93513L43.0613 4.64499ZM34.8055 6.85419L33.8055 6.8507V6.85419H34.8055ZM34.8055 7.06589H33.8054L33.8056 7.07819L34.8055 7.06589ZM35.1017 8.24152L34.5823 9.09601L37.6609 10.9676L35.9873 7.777L35.1017 8.24152ZM34.183 7.41709L33.3829 8.0171L33.3911 8.02769L34.183 7.41709ZM30.4881 5.57153L30.4915 4.57153H30.4881V5.57153ZM30.4881 6.8991V5.8991L30.4785 7.89905L30.4881 6.8991ZM33.1137 8.22908L32.3124 8.82741L32.3141 8.82965L33.1137 8.22908ZM36.412 10.0473L37.408 9.9585L37.3333 9.12088L36.4953 9.05077L36.412 10.0473ZM37.7097 24.6052L36.7136 24.694L36.746 25.0577L37.0053 25.315L37.7097 24.6052ZM37.7122 24.6077L38.4462 25.2868L39.1019 24.578L38.4166 23.8979L37.7122 24.6077ZM36.929 25.5641L36.9244 26.5641L37.4386 26.5665L37.7397 26.1495L36.929 25.5641ZM29.3985 25.5292L28.4627 25.8817L28.7054 26.526L29.3939 26.5292L29.3985 25.5292ZM28.7283 17.5591V16.5591H27.9043L27.7467 17.3679L28.7283 17.5591ZM30.8443 15.0087H31.8443L31.8443 15.0054L30.8443 15.0087ZM28.0581 12.2466L28.0597 11.2466H28.0581V12.2466ZM20.0257 12.2466H19.0257V13.2466H20.0257V12.2466ZM19.0468 0.971334L19.7512 0.261511L19.7512 0.261483L19.0468 0.971334ZM2.10846 14.2467L3.10846 14.2537V14.2467H2.10846ZM2.77617 16.2393V17.2393H4.79621L3.57138 15.6329L2.77617 16.2393ZM2.70845 17.5668L3.46442 16.9122L3.16534 16.5668H2.70845V17.5668ZM9.03396 24.8719L8.27798 25.5265L8.57706 25.8719H9.03396V24.8719ZM9.03647 24.8719L9.86718 25.4286L10.9104 23.8719H9.03647V24.8719ZM7.49528 29.7536L6.49552 29.7319L6.49528 29.7428V29.7536H7.49528ZM7.49528 30.4709L8.49489 30.4989L8.49528 30.4849V30.4709H7.49528ZM7.68354 30.9491L6.97219 31.652L6.97234 31.6521L7.68354 30.9491ZM8.16548 31.1484V30.1483L8.15169 30.1485L8.16548 31.1484ZM9.92007 31.1484L10.9158 31.0556L10.8313 30.1484H9.92007V31.1484ZM24.0095 31.1484V30.1484H23.0984L23.0138 31.0555L24.0095 31.1484ZM26.0175 31.1484L26.7138 30.4306L26.4229 30.1484H26.0175V31.1484ZM28.1461 33.2131H29.1461V32.79L28.8424 32.4954L28.1461 33.2131ZM28.1461 33.2156H27.1461V33.6441L27.4564 33.9397L28.1461 33.2156ZM28.6155 33.3999V32.3999H28.6084L28.6013 32.4L28.6155 33.3999ZM37.7923 33.3999V34.4L37.8063 34.3998L37.7923 33.3999ZM38.2667 33.1957L39.1786 32.7852L38.5672 31.4271L37.5416 32.5071L38.2667 33.1957ZM42.8577 37.375L43.1845 36.43L43.1835 36.4296L42.8577 37.375ZM49.0727 36.9217L48.6122 36.0341L48.6117 36.0344L49.0727 36.9217ZM52.9961 32.1147L52.0337 31.8428L52.0334 31.8442L52.9961 32.1147ZM52.1552 25.9877V24.9877H50.3744L51.3013 26.5082L52.1552 25.9877ZM52.7526 25.9877L52.7622 24.9877H52.7526V25.9877ZM53.36 25.6091L52.4593 25.1746L52.4556 25.1825L53.36 25.6091ZM53.2672 24.8993L52.5 25.5408L52.503 25.5442L53.2672 24.8993ZM45.0895 21.2131V22.2131H46.5786L46.0151 20.8347L45.0895 21.2131ZM45.087 21.2131V20.2131H45.0758L45.0646 20.2133L45.087 21.2131ZM38.9573 23.4123L37.9612 23.5011L38.1252 25.3416L39.5764 24.1977L38.9573 23.4123ZM37.7323 9.66867V8.66867H36.6393L36.7363 9.75744L37.7323 9.66867ZM40.3705 9.66867L41.2961 9.29029L41.042 8.66867H40.3705V9.66867ZM37.4311 8.34104V9.34104H37.4311L37.4311 8.34104ZM36.1459 6.85411L35.1459 6.85054V6.85411H36.1459ZM42.115 5.58387H43.115V4.58387H42.115V5.58387ZM42.115 8.34102L42.115 9.34102L43.115 9.34101V8.34102H42.115ZM20.026 13.5814V12.5814H19.026V13.5814H20.026ZM29.5117 15.016H30.5117L30.5117 15.0128L29.5117 15.016ZM29.5117 16.2389V17.2389H30.5117V16.2389H29.5117ZM19.3581 16.2389L18.5599 15.6365L17.3505 17.2389H19.3581V16.2389ZM8.40668 1.32714V0.32714H7.4067L7.40668 1.32712L8.40668 1.32714ZM13.7206 1.32714H14.7206V0.32714H13.7206V1.32714ZM8.40664 3.85014L7.40664 3.85012V3.85014H8.40664ZM3.44667 3.31967L4.44667 3.3197V3.31967H3.44667ZM7.06875 1.32714H8.06875V0.32714H7.06875V1.32714ZM15.0609 1.32714V0.32714H14.0609V1.32714H15.0609ZM18.688 9.46412V10.4641H19.688V9.46412H18.688ZM3.44648 9.46412L2.44648 9.46409L2.44645 10.4641H3.44648V9.46412ZM3.44667 10.7918V9.79182H2.44667V10.7918H3.44667ZM18.6882 10.7918H19.6882V9.79182H18.6882V10.7918ZM4.47083 17.5664V16.5664H2.28012L3.71531 18.2215L4.47083 17.5664ZM11.833 17.5664L12.7294 18.0096L13.4429 16.5664H11.833V17.5664ZM10.6081 23.0857L11.2826 23.824L11.6186 23.517L11.6078 23.062L10.6081 23.0857ZM9.88515 23.8105L9.12963 24.4656L9.87155 25.3212L10.6288 24.4791L9.88515 23.8105ZM16.9615 36.1967L16.9589 37.1967L16.9632 37.1967L16.9615 36.1967ZM11.266 31.1631V30.1631H10.1397L10.273 31.2815L11.266 31.1631ZM13.4397 31.1631V30.1631H12.2284L12.4578 31.3525L13.4397 31.1631ZM20.4882 31.1631V30.1631H19.6614L19.506 30.9751L20.4882 31.1631ZM22.6569 31.1631L23.65 31.2805L23.7821 30.1631H22.6569V31.1631ZM14.8254 31.1631V30.1631H13.4696L13.87 31.4584L14.8254 31.1631ZM19.1026 31.1631L20.0587 31.4561L20.4548 30.1631H19.1026V31.1631ZM8.83375 29.8356H7.83375V30.8358L8.83392 30.8356L8.83375 29.8356ZM8.83375 29.7958L8.12893 29.0864L7.83375 29.3797V29.7958H8.83375ZM8.83626 29.7933L9.54107 30.5027L9.8269 30.2187L9.836 29.8159L8.83626 29.7933ZM25.0742 29.8328L25.0743 30.8328L26.0922 30.8326L26.074 29.8149L25.0742 29.8328ZM35.0668 32.0871L35.0664 33.0871L36.1594 33.0876L36.0629 31.9988L35.0668 32.0871ZM28.8618 32.0847L28.1669 32.8037L28.4574 33.0845L28.8614 33.0847L28.8618 32.0847ZM26.3592 29.6662L27.0542 28.9471L25.3592 27.3092V29.6662H26.3592ZM26.3592 29.6687L25.3598 29.702L27.3592 29.6687H26.3592ZM23.5078 23.29L24.2001 22.5685L24.2001 22.5685L23.5078 23.29ZM16.9887 20.6748V21.6748H16.9897L16.9887 20.6748ZM16.813 20.6748V19.6748L16.8028 19.6749L16.813 20.6748ZM11.9936 22.082L10.9941 22.0491L10.9325 23.9222L12.5227 22.9306L11.9936 22.082ZM13.4394 17.5864V16.5864H12.9049L12.6079 17.0308L13.4394 17.5864ZM27.3906 17.5864L28.3742 17.7671L28.5912 16.5864H27.3906V17.5864ZM30.7366 29.9872L30.0139 30.6784L30.0185 30.6831L30.7366 29.9872ZM35.1669 30.1915L36.1595 30.3127L36.2965 29.1915H35.1669V30.1915ZM35.0866 31.4268L36.0748 31.5801L36.0857 31.51L36.0865 31.4391L35.0866 31.4268ZM35.0665 32.0844L34.0685 32.1472L34.0693 32.16L34.0704 32.1727L35.0665 32.0844ZM35.383 28.8842L35.2199 29.8708L36.1224 30.02L36.3513 29.1343L35.383 28.8842ZM35.2952 28.8842V29.8842H35.3773L35.4583 29.8708L35.2952 28.8842ZM31.4723 28.8842L30.7293 29.5535L31.0272 29.8842H31.4723V28.8842ZM30.034 26.8916V25.8916H28.3147L29.1648 27.3861L30.034 26.8916ZM36.1386 26.8916L37.0295 27.3459L37.7709 25.8916H36.1386V26.8916ZM37.4313 32.0847V33.0847H37.9439L38.2432 32.6684L37.4313 32.0847ZM36.4071 32.0847H35.4071V33.0847H36.4071V32.0847ZM36.4071 31.4221H35.4071L37.4071 31.4257L36.4071 31.4221ZM51.2266 24.6926L51.2875 25.6907L53.7672 25.5396L51.8743 23.9307L51.2266 24.6926ZM46.006 29.4271L45.1721 29.9791L46.3027 31.6871L46.9541 29.7451L46.006 29.4271ZM45.1701 28.1643V27.1643H43.3089L44.3362 28.7163L45.1701 28.1643ZM45.2831 28.1643H46.2831V27.1643H45.2831V28.1643ZM45.2831 28.1668H44.2831V29.1802L45.2963 29.1667L45.2831 28.1668ZM46.8745 29.3848L47.8446 29.142L47.8438 29.1388L46.8745 29.3848ZM46.0461 31.2005L45.591 30.31L45.5871 30.3121L46.0461 31.2005ZM44.0757 30.8219L44.8318 30.1674L44.8286 30.1638L44.0757 30.8219ZM43.9904 28.8319L44.8192 28.2724L44.0217 27.091L43.1822 28.2429L43.9904 28.8319ZM44.8864 30.1594L44.0576 30.7188L44.0622 30.7256L44.0668 30.7323L44.8864 30.1594ZM45.8403 30.3362L46.4027 31.1631L46.4041 31.1621L45.8403 30.3362ZM46.0185 29.3897L46.8413 28.8214L45.7058 27.1776L45.0704 29.0717L46.0185 29.3897ZM45.2956 36.1966L45.2974 37.1966L45.7122 37.1958L46.0047 36.9017L45.2956 36.1966ZM39.1985 31.9923L38.4209 31.3637L38.0622 31.8073L38.2616 32.3418L39.1985 31.9923ZM42.4566 28.9562L43.418 29.2317L44.1949 26.5201L41.8835 28.1368L42.4566 28.9562ZM42.3437 29.7333L41.3437 29.7238L41.3437 29.7311L42.3437 29.7333ZM43.9275 32.3361L43.466 33.2232L43.4668 33.2236L43.9275 32.3361ZM48.2223 29.3672L47.2307 29.4958L47.2307 29.4961L48.2223 29.3672ZM46.3121 26.9911L45.9885 26.0449L43.3065 26.962L45.9703 27.9308L46.3121 26.9911ZM50.6571 26.067L51.4782 25.4963L51.1461 25.0185L50.5667 25.0711L50.6571 26.067ZM51.0638 32.7345L51.9476 33.2023L51.948 33.2015L51.0638 32.7345ZM45.3031 36.1891V35.1891H44.8872L44.594 35.484L45.3031 36.1891ZM47.4408 20.8154C47.5785 21.0885 47.5785 21.4099 47.4408 21.683L45.6548 20.783C45.5071 21.076 45.5071 21.4224 45.6548 21.7154L47.4408 20.8154ZM47.4733 20.8542L42.7392 9.28985L40.8883 10.0476L45.6224 21.6119L47.4733 20.8542ZM41.8138 10.6687H42.115V8.6687H41.8138V10.6687ZM42.115 10.6687C42.734 10.6687 43.3263 10.4258 43.7656 9.99007L42.357 8.57024C42.2942 8.6326 42.2088 8.6687 42.115 8.6687V10.6687ZM43.7657 9.99C44.2025 9.55657 44.4554 8.96369 44.4554 8.34115H42.4554C42.4554 8.42101 42.4222 8.5056 42.357 8.5703L43.7657 9.99ZM44.4554 8.34115V5.58399H42.4554V8.34115H44.4554ZM44.4554 5.58399C44.4554 4.96143 44.2024 4.36862 43.7657 3.93521L42.3569 5.35477C42.4222 5.41958 42.4554 5.5042 42.4554 5.58399H44.4554ZM43.7656 3.93513C43.3264 3.49928 42.734 3.25644 42.115 3.25644V5.25644C42.2089 5.25644 42.2942 5.29257 42.357 5.35485L43.7656 3.93513ZM42.115 3.25644H37.4311V5.25644H42.115V3.25644ZM37.4311 3.25644C35.4384 3.25644 33.8125 4.85616 33.8055 6.8507L35.8055 6.85768C35.8086 5.978 36.5271 5.25644 37.4311 5.25644V3.25644ZM33.8055 6.85419V7.06589H35.8055V6.85419H33.8055ZM33.8056 7.07819C33.8125 7.64206 33.9511 8.20076 34.2161 8.70603L35.9873 7.777C35.8708 7.5549 35.8086 7.30666 35.8054 7.0536L33.8056 7.07819ZM35.6212 7.38703C35.3722 7.23568 35.1551 7.0402 34.975 6.80649L33.3911 8.02769C33.7179 8.45156 34.1183 8.81399 34.5823 9.09601L35.6212 7.38703ZM34.983 6.81713C33.9242 5.40516 32.2573 4.57757 30.4915 4.57153L30.4847 6.57152C31.6307 6.57544 32.7048 7.11271 33.383 8.01705L34.983 6.81713ZM30.4881 4.57153H30.1593V6.57153H30.4881V4.57153ZM30.1593 6.57153H30.1618V4.57153H30.1593V6.57153ZM30.1618 4.57153C29.2454 4.57153 28.4916 5.30829 28.4916 6.23656H30.4916C30.4916 6.42754 30.3352 6.57153 30.1618 6.57153V4.57153ZM28.4916 6.23656C28.4916 7.16469 29.2478 7.8991 30.1618 7.8991V5.8991C30.3328 5.8991 30.4916 6.04068 30.4916 6.23656H28.4916ZM30.1618 7.8991H30.4906V5.8991H30.1618V7.8991ZM30.4906 5.8991H30.4881V7.8991H30.4906V5.8991ZM30.4785 7.89905C31.2037 7.90602 31.882 8.25107 32.3124 8.82741L33.9149 7.63076C33.1104 6.55335 31.846 5.9121 30.4977 5.89914L30.4785 7.89905ZM32.3141 8.82965C33.2722 10.1053 34.7359 10.9106 36.3286 11.0438L36.4953 9.05077C35.4675 8.9648 34.5265 8.44501 33.9133 7.62852L32.3141 8.82965ZM35.4159 10.1361L36.7136 24.694L38.7057 24.5164L37.408 9.9585L35.4159 10.1361ZM37.0053 25.315L37.0078 25.3175L38.4166 23.8979L38.4141 23.8954L37.0053 25.315ZM36.9781 23.9286C36.6697 24.2619 36.383 24.612 36.1183 24.9787L37.7397 26.1495C37.9569 25.8487 38.1924 25.5612 38.4462 25.2868L36.9781 23.9286ZM36.9336 24.5641L29.4031 24.5292L29.3939 26.5292L36.9244 26.5641L36.9336 24.5641ZM30.3343 25.1767C29.4408 22.8049 29.2256 20.236 29.7098 17.7503L27.7467 17.3679C27.1917 20.2172 27.4384 23.1626 28.4627 25.8817L30.3343 25.1767ZM28.7283 18.5591H30.1741V16.5591H28.7283V18.5591ZM30.1741 18.5591C30.6129 18.5591 31.0377 18.3874 31.3529 18.0747L29.9442 16.655C30.0083 16.5913 30.0918 16.5591 30.1741 16.5591V18.5591ZM31.3529 18.0747C31.6669 17.7631 31.8443 17.3385 31.8443 16.8966H29.8443C29.8443 16.8034 29.8811 16.7175 29.9442 16.655L31.3529 18.0747ZM31.8443 16.8966V15.0087H29.8443V16.8966H31.8443ZM31.8443 15.0054C31.8374 12.9245 30.1399 11.2499 28.0597 11.2466L28.0565 13.2466C29.0486 13.2482 29.8411 14.0444 29.8443 15.012L31.8443 15.0054ZM28.0581 11.2466H20.0257V13.2466H28.0581V11.2466ZM21.0257 12.2466V3.32003H19.0257V12.2466H21.0257ZM21.0257 3.32003C21.0257 2.17159 20.5678 1.07181 19.7512 0.261511L18.3424 1.68116C18.7809 2.11624 19.0257 2.7051 19.0257 3.32003H21.0257ZM19.7512 0.261483C18.9348 -0.548547 17.8301 -1 16.6798 -1V1C17.3066 1 17.9038 1.24589 18.3425 1.68119L19.7512 0.261483ZM16.6798 -1H5.45442V1H16.6798V-1ZM5.45442 -1C3.06204 -1 1.10846 0.927302 1.10846 3.32003H3.10846C3.10846 2.04651 4.15191 1 5.45442 1V-1ZM1.10846 3.32003V14.2467H3.10846V3.32003H1.10846ZM1.10848 14.2397C1.1019 15.1804 1.41102 16.0981 1.98097 16.8456L3.57138 15.6329C3.26777 15.2348 3.10498 14.7477 3.10844 14.2537L1.10848 14.2397ZM2.77617 15.2393H0.667713V17.2393H2.77617V15.2393ZM0.667713 15.2393C-0.246183 15.2393 -1 15.976 -1 16.9018H1C1 17.0953 0.843636 17.2393 0.667713 17.2393V15.2393ZM-1 16.9018C-1 17.8276 -0.248713 18.5668 0.667713 18.5668V16.5668C0.846115 16.5668 1 16.7133 1 16.9018H-1ZM0.667713 18.5668H2.70845V16.5668H0.667713V18.5668ZM1.95247 18.2214L8.27798 25.5265L9.78993 24.2173L3.46442 16.9122L1.95247 18.2214ZM9.03396 25.8719H9.03647V23.8719H9.03396V25.8719ZM8.20575 24.3152C7.12764 25.924 6.53729 27.8035 6.49552 29.7319L8.49505 29.7753C8.52859 28.2268 9.00249 26.7189 9.86718 25.4286L8.20575 24.3152ZM6.49528 29.7536V30.4709H8.49528V29.7536H6.49528ZM6.49567 30.4429C6.48304 30.8943 6.65441 31.3303 6.97219 31.652L8.39489 30.2463C8.46166 30.3139 8.49749 30.4062 8.49489 30.4989L6.49567 30.4429ZM6.97234 31.6521C7.28733 31.9708 7.72057 32.1546 8.17928 32.1483L8.15169 30.1485C8.24894 30.1471 8.33578 30.1865 8.39474 30.2461L6.97234 31.6521ZM8.16548 32.1484H9.92007V30.1484H8.16548V32.1484ZM8.92438 31.2411C9.30919 35.3729 12.7986 38.522 16.9635 38.522V36.522C13.8188 36.522 11.2037 34.1468 10.9158 31.0556L8.92438 31.2411ZM16.9635 38.522C21.128 38.522 24.6199 35.3733 25.0051 31.2412L23.0138 31.0555C22.7256 34.1464 20.1085 36.522 16.9635 36.522V38.522ZM24.0095 32.1484H26.0175V30.1484H24.0095V32.1484ZM25.3213 31.8662L27.4499 33.9309L28.8424 32.4954L26.7138 30.4306L25.3213 31.8662ZM27.1461 33.2131V33.2156H29.1461V33.2131H27.1461ZM27.4564 33.9397C27.7689 34.2374 28.1889 34.4061 28.6297 34.3998L28.6013 32.4C28.6907 32.3988 28.7743 32.4329 28.8358 32.4916L27.4564 33.9397ZM28.6155 34.3999H37.7923V32.3999H28.6155V34.3999ZM37.8063 34.3998C38.2405 34.3938 38.6744 34.2186 38.9919 33.8843L37.5416 32.5071C37.6131 32.4319 37.7006 32.4011 37.7783 32.4L37.8063 34.3998ZM37.3549 33.6062C38.3525 35.8222 40.2273 37.5264 42.5319 38.3205L43.1835 36.4296C41.3966 35.8139 39.9481 34.4945 39.1786 32.7852L37.3549 33.6062ZM42.5309 38.3201C44.8357 39.1171 47.3721 38.9321 49.5337 37.8091L48.6117 36.0344C46.9379 36.9039 44.9712 37.0478 43.1845 36.43L42.5309 38.3201ZM49.5333 37.8094C51.697 36.6868 53.3009 34.7261 53.9588 32.3853L52.0334 31.8442C51.5265 33.6479 50.289 35.1642 48.6122 36.0341L49.5333 37.8094ZM53.9584 32.3867C54.619 30.0488 54.2756 27.545 53.009 25.4672L51.3013 26.5082C52.2788 28.1116 52.5428 30.0412 52.0337 31.8428L53.9584 32.3867ZM52.1552 26.9877H52.7526V24.9877H52.1552V26.9877ZM52.743 26.9877C53.3852 26.9938 53.9845 26.6292 54.2645 26.0358L52.4556 25.1825C52.5147 25.0573 52.6371 24.9865 52.7622 24.9877L52.743 26.9877ZM54.2607 26.0436C54.549 25.446 54.4479 24.7479 54.0314 24.2543L52.503 25.5442C52.4227 25.4492 52.3969 25.304 52.4594 25.1746L54.2607 26.0436ZM54.0343 24.2577C52.1807 22.0413 49.5438 20.6164 46.6665 20.2725L46.4291 22.2583C48.803 22.5421 50.9751 23.7173 52.5001 25.5408L54.0343 24.2577ZM45.0895 20.2131H45.087V22.2131H45.0895V20.2131ZM45.0646 20.2133C42.6195 20.268 40.2562 21.1149 38.3382 22.627L39.5764 24.1977C41.1524 22.9552 43.0964 22.2578 45.1093 22.2128L45.0646 20.2133ZM39.9533 23.3236L38.7284 9.57989L36.7363 9.75744L37.9612 23.5011L39.9533 23.3236ZM37.7323 10.6687H40.3705V8.66867H37.7323V10.6687ZM39.4448 10.047L44.1638 21.5915L46.0151 20.8347L41.2961 9.29029L39.4448 10.047ZM37.4311 7.34104C37.2657 7.34104 37.1459 7.21108 37.1459 7.06582H35.1459C35.1459 8.33027 36.1758 9.34104 37.4311 9.34104V7.34104ZM37.1459 7.06582V6.85411H35.1459V7.06582H37.1459ZM37.1459 6.85769C37.1464 6.71395 37.2663 6.58387 37.4311 6.58387V4.58387C36.1802 4.58387 35.1504 5.58949 35.1459 6.85054L37.1459 6.85769ZM37.4311 6.58387H42.115V4.58387H37.4311V6.58387ZM41.115 5.58387V8.34102H43.115V5.58387H41.115ZM42.115 7.34102L37.4311 7.34104L37.4311 9.34104L42.115 9.34102L42.115 7.34102ZM21.026 14.2464V13.5814H19.026V14.2464H21.026ZM20.026 14.5814H28.0583V12.5814H20.026V14.5814ZM28.0583 14.5814C28.318 14.5814 28.5109 14.7856 28.5117 15.0191L30.5117 15.0128C30.5074 13.6573 29.4001 12.5814 28.0583 12.5814V14.5814ZM28.5117 15.016V16.2389H30.5117V15.016H28.5117ZM29.5117 15.2389H19.3581V17.2389H29.5117V15.2389ZM20.1563 16.8413C20.7217 16.0923 21.026 15.1808 21.026 14.2464H19.026C19.026 14.7466 18.8631 15.2349 18.5599 15.6365L20.1563 16.8413ZM8.40668 2.32714H13.7206V0.32714H8.40668V2.32714ZM12.7206 1.32714V3.85016H14.7206V1.32714H12.7206ZM12.7206 3.85016C12.7206 3.76144 12.756 3.67497 12.8204 3.61104L14.2291 5.03075C14.5446 4.71775 14.7206 4.29256 14.7206 3.85016H12.7206ZM12.8204 3.61104C12.8832 3.54879 12.966 3.51517 13.0529 3.51517V5.51517C13.4911 5.51517 13.9154 5.34207 14.2291 5.03075L12.8204 3.61104ZM13.0529 3.51517H9.07686V5.51517H13.0529V3.51517ZM9.07686 3.51517C9.25028 3.51517 9.40664 3.65915 9.40664 3.85014H7.40664C7.40664 4.77841 8.16045 5.51517 9.07686 5.51517V3.51517ZM9.40664 3.85016L9.40668 1.32716L7.40668 1.32712L7.40664 3.85012L9.40664 3.85016ZM4.44667 3.31967C4.44667 2.77838 4.8902 2.32714 5.45476 2.32714V0.32714C3.80033 0.32714 2.44667 1.65917 2.44667 3.31967H4.44667ZM5.45476 2.32714H7.06875V0.32714H5.45476V2.32714ZM6.06875 1.32714V3.85016H8.06875V1.32714H6.06875ZM6.06875 3.85016C6.06875 5.51066 7.42241 6.84269 9.07684 6.84269V4.84269C8.51228 4.84269 8.06875 4.39145 8.06875 3.85016H6.06875ZM9.07684 6.84269H13.0529V4.84269H9.07684V6.84269ZM13.0529 6.84269C14.704 6.84269 16.0609 5.51147 16.0609 3.85016H14.0609C14.0609 4.39065 13.6157 4.84269 13.0529 4.84269V6.84269ZM16.0609 3.85016V1.32714H14.0609V3.85016H16.0609ZM15.0609 2.32714H16.6799V0.32714H15.0609V2.32714ZM16.6799 2.32714C17.2445 2.32714 17.688 2.77838 17.688 3.31967H19.688C19.688 1.65917 18.3344 0.32714 16.6799 0.32714V2.32714ZM17.688 3.31967V9.46412H19.688V3.31967H17.688ZM18.688 8.46412H3.44648V10.4641H18.688V8.46412ZM4.44648 9.46415L4.44667 3.3197L2.44667 3.31964L2.44648 9.46409L4.44648 9.46415ZM4.44667 14.2464V10.7918H2.44667V14.2464H4.44667ZM3.44667 11.7918H18.6882V9.79182H3.44667V11.7918ZM17.6882 10.7918V14.2464H19.6882V10.7918H17.6882ZM17.6882 14.2464C17.6882 14.786 17.2439 15.2389 16.6801 15.2389V17.2389C18.3354 17.2389 19.6882 15.9036 19.6882 14.2464H17.6882ZM16.6801 15.2389H5.45476V17.2389H16.6801V15.2389ZM5.45476 15.2389C4.89102 15.2389 4.44667 14.786 4.44667 14.2464H2.44667C2.44667 15.9036 3.79951 17.2389 5.45476 17.2389V15.2389ZM4.47083 18.5664H11.833V16.5664H4.47083V18.5664ZM10.9365 17.1232C10.017 18.9832 9.55925 21.0362 9.60834 23.1094L11.6078 23.062C11.5664 21.3146 11.9521 19.5818 12.7294 18.0096L10.9365 17.1232ZM9.93354 22.3474C9.65996 22.5974 9.39525 22.8597 9.14155 23.1418L10.6288 24.4791C10.8319 24.2532 11.0491 24.0372 11.2826 23.824L9.93354 22.3474ZM10.6407 23.1553L5.22635 16.9113L3.71531 18.2215L9.12963 24.4656L10.6407 23.1553ZM16.964 35.1967C14.5541 35.1905 12.5398 33.4009 12.259 31.0448L10.273 31.2815C10.675 34.6539 13.5504 37.188 16.9589 37.1967L16.964 35.1967ZM11.266 32.1631H13.4423V30.1631H11.266V32.1631ZM13.4423 30.1631H13.4397V32.1631H13.4423V30.1631ZM12.4578 31.3525C12.8734 33.5069 14.768 35.0548 16.964 35.0548V33.0548C15.7161 33.0548 14.6537 32.1767 14.4216 30.9737L12.4578 31.3525ZM16.964 35.0548C19.1588 35.0548 21.0576 33.5079 21.4703 31.3511L19.506 30.9751C19.2762 32.1759 18.213 33.0548 16.964 33.0548V35.0548ZM20.4882 32.1631H22.6569V30.1631H20.4882V32.1631ZM21.6638 31.0457C21.3852 33.4032 19.3694 35.1926 16.9598 35.1967L16.9632 37.1967C20.372 37.1909 23.2509 34.6565 23.65 31.2805L21.6638 31.0457ZM14.8254 32.1631H19.1026V30.1631H14.8254V32.1631ZM18.1464 30.8702C17.9905 31.379 17.5137 31.7347 16.964 31.7347V33.7347C18.3821 33.7347 19.6423 32.8152 20.0587 31.4561L18.1464 30.8702ZM16.964 31.7347C16.4161 31.7347 15.9392 31.3804 15.7808 30.8678L13.87 31.4584C14.2888 32.8138 15.544 33.7347 16.964 33.7347V31.7347ZM9.83375 29.8356V29.7958H7.83375V29.8356H9.83375ZM9.53856 30.5052L9.54107 30.5027L8.13144 29.0839L8.12893 29.0864L9.53856 30.5052ZM9.836 29.8159C9.92145 26.0353 13.0371 23.0023 16.8686 23.0023V21.0023C11.9649 21.0023 7.94685 24.8887 7.83651 29.7707L9.836 29.8159ZM16.8686 23.0023H17.0418V21.0023H16.8686V23.0023ZM17.0418 23.0023C20.886 23.0023 24.0064 26.0567 24.0743 29.8507L26.074 29.8149C25.9864 24.9168 21.9629 21.0023 17.0418 21.0023V23.0023ZM25.074 28.8328L8.83357 28.8356L8.83392 30.8356L25.0743 30.8328L25.074 28.8328ZM35.0672 31.0871L28.8622 31.0847L28.8614 33.0847L35.0664 33.0871L35.0672 31.0871ZM29.5567 31.3656L27.0542 28.9471L25.6643 30.3853L28.1669 32.8037L29.5567 31.3656ZM25.3592 29.6662V29.6687H27.3592V29.6662H25.3592ZM27.3587 29.6354C27.2697 26.9603 26.1372 24.4272 24.2001 22.5685L22.8154 24.0116C24.3775 25.5104 25.2882 27.5502 25.3598 29.702L27.3587 29.6354ZM24.2001 22.5685C22.2639 20.7107 19.6784 19.6721 16.9877 19.6748L16.9897 21.6748C19.1642 21.6726 21.2525 22.512 22.8154 24.0116L24.2001 22.5685ZM16.9887 19.6748H16.813V21.6748H16.9887V19.6748ZM16.8028 19.6749C14.9118 19.6942 13.0656 20.235 11.4644 21.2335L12.5227 22.9306C13.8132 22.1258 15.3005 21.6903 16.8232 21.6748L16.8028 19.6749ZM12.993 22.1149C13.0396 20.7 13.4809 19.3243 14.2709 18.1419L12.6079 17.0308C11.6107 18.5234 11.053 20.2611 10.9941 22.0491L12.993 22.1149ZM13.4394 18.5864H27.3906V16.5864H13.4394V18.5864ZM26.4071 17.4056C25.9972 19.6364 25.387 25.8401 30.0139 30.6784L31.4593 29.2961C27.5217 25.1786 27.996 19.8253 28.3742 17.7671L26.4071 17.4056ZM30.0185 30.6831C30.3303 31.005 30.7617 31.1915 31.2185 31.1915V29.1915C31.3088 29.1915 31.3939 29.2285 31.4547 29.2913L30.0185 30.6831ZM31.2185 31.1915H35.1669V29.1915H31.2185V31.1915ZM34.1743 30.0702C34.1192 30.5213 34.0921 30.9714 34.0867 31.4146L36.0865 31.4391C36.0911 31.0604 36.1142 30.6836 36.1595 30.3127L34.1743 30.0702ZM34.0984 31.2736C34.0417 31.6392 34.0544 31.9229 34.0685 32.1472L36.0645 32.0215C36.0536 31.8474 36.0511 31.7326 36.0748 31.5801L34.0984 31.2736ZM34.0704 32.1727L34.0707 32.1755L36.0629 31.9988L36.0626 31.996L34.0704 32.1727ZM35.5462 27.8976C35.408 27.8747 35.2702 27.8747 35.132 27.8976L35.4583 29.8708C35.4238 29.8765 35.3835 29.8804 35.3391 29.8804C35.2947 29.8804 35.2545 29.8765 35.2199 29.8708L35.5462 27.8976ZM35.2952 27.8842H31.4723V29.8842H35.2952V27.8842ZM32.2153 28.2149C31.7138 27.6582 31.2742 27.0493 30.9032 26.3972L29.1648 27.3861C29.6071 28.1636 30.1314 28.8897 30.7293 29.5535L32.2153 28.2149ZM30.034 27.8916H36.1386V25.8916H30.034V27.8916ZM35.2477 26.4374C34.891 27.1371 34.6114 27.873 34.4148 28.634L36.3513 29.1343C36.5111 28.5156 36.7386 27.9165 37.0295 27.3459L35.2477 26.4374ZM37.4313 31.0847H36.4071V33.0847H37.4313V31.0847ZM37.4071 32.0847V31.4196H35.4071V32.0847H37.4071ZM35.4071 31.4196V31.4221H37.4071V31.4196H35.4071ZM37.4071 31.4257C37.4183 28.3454 39.2319 25.5496 42.0614 24.2657L41.235 22.4444C37.6989 24.0489 35.4211 27.5499 35.4071 31.4185L37.4071 31.4257ZM42.0614 24.2657C44.8923 22.9812 48.2168 23.4467 50.579 25.4545L51.8743 23.9307C48.921 21.4204 44.7697 20.8406 41.235 22.4444L42.0614 24.2657ZM51.1658 23.6945C46.5987 23.9728 40.8169 25.663 36.6194 31.5009L38.2432 32.6684C41.9829 27.4674 47.1094 25.9454 51.2875 25.6907L51.1658 23.6945ZM46.8399 28.8751L46.004 27.6124L44.3362 28.7163L45.1721 29.9791L46.8399 28.8751ZM45.1701 29.1643H45.2831V27.1643H45.1701V29.1643ZM44.2831 28.1643V28.1668H46.2831V28.1643H44.2831ZM45.2963 29.1667C45.5855 29.1629 45.836 29.3577 45.9052 29.6307L47.8438 29.1388C47.5465 27.9671 46.4817 27.1508 45.2698 27.1669L45.2963 29.1667ZM45.9044 29.6275C45.9718 29.8968 45.8456 30.18 45.591 30.31L46.5012 32.0909C47.5821 31.5385 48.1387 30.3173 47.8446 29.142L45.9044 29.6275ZM45.5871 30.3121C45.3319 30.4439 45.0185 30.3831 44.8317 30.1674L43.3197 31.4764C44.1118 32.3915 45.43 32.6445 46.5052 32.0889L45.5871 30.3121ZM44.8286 30.1638C44.6467 29.9557 44.632 29.6493 44.7985 29.4208L43.1822 28.2429C42.4701 29.2199 42.5207 30.5623 43.3228 31.48L44.8286 30.1638ZM43.1615 29.3913L44.0576 30.7188L45.7153 29.5999L44.8192 28.2724L43.1615 29.3913ZM44.0668 30.7323C44.5941 31.4867 45.6358 31.6847 46.4027 31.1631L45.2779 29.5093C45.4223 29.4112 45.6105 29.4498 45.7061 29.5865L44.0668 30.7323ZM46.4041 31.1621C47.174 30.6365 47.371 29.5882 46.8413 28.8214L45.1958 29.9581C45.0928 29.809 45.1341 29.6075 45.2765 29.5103L46.4041 31.1621ZM45.0704 29.0717L45.0579 29.1091L46.9541 29.7451L46.9666 29.7077L45.0704 29.0717ZM45.2938 35.1966C42.9897 35.2008 40.9319 33.7781 40.1355 31.6429L38.2616 32.3418C39.3529 35.2677 42.1646 37.2023 45.2974 37.1966L45.2938 35.1966ZM39.9762 32.621C40.853 31.5364 41.881 30.5792 43.0298 29.7757L41.8835 28.1368C40.5825 29.0467 39.4165 30.132 38.4209 31.3637L39.9762 32.621ZM41.4953 28.6808C41.3976 29.0217 41.3471 29.3727 41.3437 29.7238L43.3436 29.7429C43.3453 29.5709 43.3701 29.3988 43.418 29.2317L41.4953 28.6808ZM41.3437 29.7311C41.3403 31.202 42.1613 32.5443 43.466 33.2232L44.3891 31.449C43.7409 31.1117 43.342 30.4514 43.3437 29.7356L41.3437 29.7311ZM43.4668 33.2236C44.7683 33.8993 46.3419 33.8034 47.5513 32.9667L46.4134 31.3219C45.8156 31.7355 45.0346 31.7841 44.3883 31.4485L43.4668 33.2236ZM47.5513 32.9667C48.7608 32.1299 49.4031 30.6928 49.214 29.2383L47.2307 29.4961C47.3227 30.2035 47.0111 30.9084 46.4134 31.3219L47.5513 32.9667ZM49.214 29.2385C49.0251 27.7824 48.0372 26.5544 46.6539 26.0513L45.9703 27.9308C46.6554 28.18 47.1384 28.7851 47.2307 29.4958L49.214 29.2385ZM46.6357 27.9373C47.965 27.4827 49.3451 27.1903 50.7475 27.0629L50.5667 25.0711C49.0072 25.2127 47.4706 25.5381 45.9885 26.0449L46.6357 27.9373ZM49.836 26.6378C50.9957 28.306 51.1269 30.4736 50.1795 32.2675L51.948 33.2015C53.2446 30.7464 53.0646 27.7783 51.4782 25.4963L49.836 26.6378ZM50.1799 32.2667C49.23 34.0613 47.3528 35.1891 45.3031 35.1891V37.1891C48.0878 37.1891 50.6484 35.6568 51.9476 33.2023L50.1799 32.2667ZM44.594 35.484L44.5865 35.4915L46.0047 36.9017L46.0122 36.8942L44.594 35.484Z" fill="#D5A859" mask="url(#path-1-inside-1_9157_1626)"/>
</g>
</g>
</svg>
